<?xml version="1.0" standalone="no"?>
<!DOCTYPE svg PUBLIC "-//W3C//DTD SVG 20010904//EN"
 "http://www.w3.org/TR/2001/REC-SVG-20010904/DTD/svg10.dtd">
<svg version="1.0" xmlns="http://www.w3.org/2000/svg"
 width="1280.000000pt" height="944.000000pt" viewBox="0 0 1280.000000 944.000000"
 preserveAspectRatio="xMidYMid meet">
<metadata>
Created by potrace 1.15, written by Peter Selinger 2001-2017
</metadata>
<g transform="translate(0.000000,944.000000) scale(0.100000,-0.100000)"
fill="#000000" stroke="none">
<path d="M12386 9411 c-3 -5 -41 -40 -84 -79 l-78 -71 -89 70 c-49 38 -90 69
-93 69 -2 0 33 -39 77 -86 l81 -87 -43 -51 c-23 -28 -58 -71 -77 -96 l-34 -45
40 35 c21 19 62 57 91 84 l52 49 45 -36 c146 -117 142 -115 119 -82 -12 17
-47 55 -77 85 -31 30 -56 58 -56 62 0 3 28 42 61 85 34 43 66 84 72 91 5 6 7
12 4 12 -3 0 -8 -4 -11 -9z"/>
<path d="M11836 9267 c-21 -62 -40 -114 -42 -116 -3 -3 -67 32 -181 101 -59
35 -35 12 64 -62 l96 -73 -34 -31 c-19 -17 -64 -57 -99 -89 l-65 -58 107 72
c68 46 111 70 117 64 5 -6 13 -23 17 -39 6 -26 -2 -36 -115 -145 -67 -64 -122
-120 -122 -126 0 -5 -27 -30 -60 -55 -58 -43 -176 -158 -195 -190 -5 -9 -36
-37 -70 -62 -66 -51 -164 -153 -164 -171 0 -7 -25 -28 -56 -47 -66 -41 -174
-154 -174 -182 0 -12 -12 -24 -33 -33 -19 -8 -57 -32 -85 -54 -80 -64 -85 -17
-8 85 66 89 166 302 166 354 0 37 -38 5 -68 -57 -15 -31 -31 -54 -37 -52 -10
4 -10 18 -3 89 6 62 -23 41 -89 -65 -68 -110 -191 -251 -205 -237 -21 21 -20
107 2 179 19 64 20 78 10 130 -28 134 -88 211 -199 254 -47 19 -81 23 -221 26
-166 4 -250 -3 -253 -22 -1 -6 44 -15 100 -21 79 -9 112 -17 147 -38 106 -62
85 -135 -51 -186 -48 -18 -71 -21 -129 -16 -91 7 -380 -18 -425 -37 -42 -18
-63 -41 -79 -89 -6 -21 -14 -38 -16 -38 -3 0 -31 14 -64 30 -58 30 -60 31 -60
71 0 49 11 71 61 126 22 24 39 52 39 63 0 19 -1 20 -24 5 -47 -31 -258 -267
-276 -309 -10 -24 -20 -79 -23 -137 -8 -132 -9 -132 -71 -125 -86 11 -368 8
-419 -3 -52 -12 -197 -76 -197 -87 0 -4 58 -4 128 0 101 5 164 2 291 -14 89
-11 168 -23 174 -26 37 -21 59 -55 78 -117 23 -77 20 -122 -12 -173 -29 -48
-64 -58 -147 -44 -52 10 -84 10 -134 1 -90 -15 -93 -15 -134 21 -43 38 -64 81
-65 135 l-1 38 -18 -50 c-62 -168 29 -415 177 -480 83 -37 83 -98 0 -136 -69
-31 -113 -25 -196 26 -40 25 -91 60 -113 79 -63 55 -142 77 -290 83 -171 7
-203 -2 -287 -84 -64 -61 -79 -97 -24 -53 45 35 91 50 159 50 108 0 147 -34
137 -120 -4 -39 1 -55 37 -122 23 -43 40 -87 38 -99 -4 -30 -37 -39 -83 -24
-48 17 -182 147 -190 187 -7 28 -22 45 -32 34 -11 -11 19 -120 44 -164 20 -34
23 -45 13 -57 -19 -23 -51 -18 -102 14 -50 32 -68 57 -79 111 -6 30 -7 26 -8
-25 -1 -77 24 -120 110 -189 35 -29 73 -68 84 -88 19 -36 19 -37 1 -57 -25
-27 -52 -26 -119 4 -111 51 -183 43 -241 -26 -32 -38 -27 -49 10 -20 15 11 34
21 43 21 35 -1 100 -39 115 -69 20 -38 20 -106 1 -161 -8 -23 -15 -54 -15 -69
0 -39 35 -91 62 -91 50 0 68 -11 68 -40 0 -34 -42 -68 -94 -77 -87 -14 -228
149 -212 246 3 20 8 50 12 66 6 26 5 28 -8 15 -16 -17 -38 -124 -38 -189 0
-22 9 -63 19 -91 l19 -50 -89 0 c-103 0 -103 0 -72 96 16 52 14 72 -5 60 -6
-3 -22 -40 -37 -81 -27 -74 -28 -75 -59 -71 -17 3 -58 8 -91 11 -33 4 -114 15
-180 27 -168 28 -331 22 -515 -20 -156 -35 -370 -62 -497 -62 -128 0 -255 22
-448 79 -93 27 -300 83 -460 126 -159 42 -373 98 -475 125 -215 57 -259 65
-435 81 -331 29 -612 -28 -932 -190 -337 -170 -514 -288 -719 -478 l-111 -102
-62 -138 c-35 -76 -67 -142 -72 -148 -17 -17 -9 15 16 65 23 45 25 80 5 80 -4
0 -30 -15 -56 -33 -27 -18 -76 -47 -109 -66 -90 -51 -258 -167 -315 -217 -27
-25 -70 -73 -96 -107 l-46 -62 -138 -27 c-232 -46 -322 -90 -461 -228 -89 -89
-148 -170 -217 -300 -100 -187 -131 -285 -183 -580 -26 -147 -32 -215 -39
-420 -5 -135 -14 -270 -20 -300 -15 -71 -97 -308 -116 -338 -21 -31 -73 -62
-107 -62 -105 0 -227 135 -227 253 0 61 28 91 119 126 34 13 60 29 58 35 -7
19 -99 11 -148 -13 -100 -48 -154 -128 -170 -252 -43 -336 45 -552 250 -613
123 -36 210 -14 272 71 43 57 62 63 67 21 5 -38 -91 -230 -130 -264 -55 -46
-116 -68 -188 -67 -80 0 -127 20 -191 80 -27 25 -52 44 -55 40 -11 -11 29 -71
84 -127 89 -91 165 -100 318 -41 162 63 257 173 314 361 26 90 90 231 100 225
4 -2 10 -24 12 -47 3 -24 15 -66 28 -93 l23 -50 8 75 c8 77 48 218 79 280 17
33 64 84 135 144 l30 25 -40 -6 c-22 -3 -37 -3 -34 1 4 4 39 9 78 12 87 6 227
45 295 82 165 90 239 394 171 710 -31 141 -82 327 -101 364 -31 59 -6 108 55
108 44 0 173 -55 202 -86 70 -75 172 -124 334 -161 85 -19 117 -34 174 -84 24
-22 48 -39 53 -39 16 0 -27 52 -104 126 -71 70 -124 103 -221 139 -94 36 -171
137 -202 267 -18 79 -19 227 -1 338 8 47 12 99 9 117 -5 30 -3 32 87 79 159
81 224 141 267 242 13 31 22 46 19 32 -34 -155 -32 -421 4 -560 28 -106 86
-251 131 -326 46 -79 174 -211 264 -273 40 -28 183 -109 318 -180 134 -71 282
-154 328 -184 46 -30 128 -76 182 -102 107 -53 155 -97 191 -174 18 -40 21
-63 20 -176 -2 -261 -70 -494 -191 -658 -78 -107 -87 -131 -88 -232 0 -78 3
-96 25 -133 32 -56 65 -76 174 -102 49 -12 119 -36 155 -52 36 -16 194 -85
351 -153 347 -149 489 -216 702 -331 223 -120 257 -142 305 -194 65 -72 87
-124 88 -205 0 -63 -3 -75 -34 -122 -32 -50 -33 -56 -29 -125 8 -124 74 -236
190 -324 35 -26 97 -79 138 -118 91 -86 167 -125 206 -107 29 13 29 29 0 129
-21 74 -31 263 -17 336 21 115 -8 162 -157 255 -56 34 -135 97 -187 146 -98
94 -97 96 15 22 208 -139 389 -286 582 -474 171 -167 270 -239 376 -274 124
-41 135 -55 142 -191 5 -94 7 -99 39 -132 84 -87 295 -128 461 -90 84 19 129
47 153 96 28 58 10 109 -79 215 -86 103 -136 141 -303 229 -68 36 -149 81
-179 101 -85 54 -246 222 -367 383 -199 263 -304 355 -628 549 -77 46 -200
123 -274 172 -146 95 -294 175 -399 215 -37 14 -128 34 -203 45 -161 24 -232
56 -335 151 -148 135 -158 269 -33 441 l34 48 5 -83 c4 -70 12 -98 47 -178 23
-52 53 -124 67 -159 54 -138 64 -146 204 -154 58 -3 119 -13 156 -26 109 -38
336 -156 462 -240 67 -44 125 -81 128 -81 4 0 -9 17 -28 38 -77 85 -120 164
-159 290 -11 34 -45 126 -75 204 -68 173 -114 348 -114 430 0 65 -25 188 -90
433 -63 240 -92 391 -100 520 -4 66 -11 132 -15 148 -6 23 -4 27 14 27 37 0
78 -28 113 -76 29 -40 105 -112 337 -317 144 -127 322 -224 489 -266 42 -11
154 -31 248 -45 95 -14 252 -41 350 -60 474 -92 601 -107 984 -116 336 -8 382
-14 522 -61 100 -33 168 -74 300 -180 140 -114 267 -182 462 -249 148 -50 220
-82 317 -140 42 -25 91 -53 108 -62 26 -14 31 -23 31 -55 0 -34 -8 -45 -73
-108 -75 -73 -133 -106 -259 -151 -40 -14 -136 -59 -214 -100 -177 -93 -221
-104 -394 -104 -117 0 -139 3 -167 20 -18 11 -33 21 -34 22 0 2 -4 38 -8 81
-15 143 -85 237 -174 237 -32 0 -58 -11 -121 -52 l-80 -53 -156 -5 c-175 -6
-190 -11 -190 -67 0 -45 64 -108 202 -199 56 -36 131 -95 168 -129 74 -69 100
-80 212 -90 142 -11 245 -58 339 -156 64 -66 69 -69 113 -69 44 0 51 4 130 78
57 54 121 100 207 150 203 118 467 247 582 285 140 46 186 74 252 155 73 88
98 154 99 257 0 68 -4 88 -27 130 -26 50 -294 329 -518 540 -58 55 -111 109
-117 121 l-11 20 61 -20 60 -20 107 22 c58 12 178 26 266 32 260 16 278 18
397 41 252 48 380 -8 533 -236 69 -104 98 -174 135 -329 48 -203 62 -310 65
-493 2 -155 5 -175 24 -206 13 -22 21 -51 21 -80 0 -61 -31 -97 -102 -117 -62
-18 -89 -52 -115 -139 -33 -116 7 -245 136 -432 111 -160 123 -173 148 -165
29 9 49 56 79 188 14 62 41 169 59 238 19 69 46 179 60 245 43 190 52 217 95
274 46 60 49 86 19 151 -11 25 -30 74 -41 110 -11 36 -42 121 -70 189 -72 182
-112 353 -143 625 -17 144 -39 194 -151 355 -81 117 -134 169 -197 196 -20 8
-97 22 -169 30 -121 13 -324 55 -503 104 -38 11 -106 40 -150 65 -44 25 -88
46 -97 46 -19 0 -19 -1 4 95 5 22 36 121 68 220 32 99 66 218 75 265 9 47 26
121 37 165 27 108 27 194 0 273 -28 80 -29 191 -2 305 25 110 49 169 120 296
96 174 197 430 235 603 39 176 77 229 237 334 141 93 178 108 268 108 85 0
147 -18 260 -74 99 -50 173 -107 296 -226 73 -73 124 -112 189 -149 49 -27
102 -61 118 -74 37 -31 83 -127 92 -191 9 -67 41 -96 103 -93 62 2 151 36 208
80 25 19 75 48 110 65 66 31 86 52 98 103 4 16 27 75 52 131 45 104 54 157 34
209 -5 14 -52 70 -102 123 -77 81 -106 121 -167 232 -98 178 -146 249 -282
413 -65 78 -163 214 -229 317 -63 99 -165 244 -226 322 l-112 141 50 61 c53
65 88 125 88 151 0 8 -2 15 -4 15 -3 0 -61 -20 -131 -45 -69 -24 -123 -41
-120 -36 2 5 73 33 156 62 148 51 151 53 203 110 51 56 113 155 103 165 -2 2
-35 -9 -72 -26 -37 -17 -69 -29 -71 -27 -2 2 39 23 91 46 68 31 106 56 135 87
43 47 123 165 116 171 -2 3 -18 -3 -35 -12 -52 -26 -35 -9 23 24 60 35 99 74
169 172 50 70 58 90 30 69 -10 -7 3 6 30 29 49 44 177 202 177 218 0 10 62 73
71 73 4 0 19 -29 34 -65 15 -36 29 -64 31 -62 2 1 -8 38 -21 81 -13 43 -24 81
-23 85 1 3 -4 19 -11 35 -6 16 -10 30 -8 32 2 2 35 7 73 10 38 3 96 9 129 13
l60 8 -69 2 -69 1 23 25 c35 37 15 43 -23 7 -26 -26 -41 -32 -74 -32 -23 0
-44 4 -48 10 -3 5 6 59 20 121 14 61 25 113 23 114 -2 2 -21 -47 -42 -108z
m-306 -611 c0 -2 -8 -10 -17 -17 -16 -13 -17 -12 -4 4 13 16 21 21 21 13z
m-1860 -399 c75 -50 87 -120 32 -186 l-28 -33 -58 56 c-51 49 -145 106 -175
106 -18 0 -13 15 12 37 38 35 60 42 123 43 47 0 69 -5 94 -23z m-320 -75 c81
-81 99 -126 80 -201 -17 -70 -48 -133 -62 -129 -20 7 -79 155 -88 222 -16 114
-19 176 -8 176 5 0 41 -31 78 -68z m-7764 -3524 c-10 -52 -72 -167 -133 -248
-31 -41 -76 -103 -100 -138 -53 -77 -55 -61 -12 75 53 167 105 251 193 315 50
36 60 36 52 -4z m-107 -879 c86 -160 91 -173 103 -270 10 -82 9 -111 -5 -195
-33 -203 -78 -289 -183 -350 -40 -23 -151 -64 -175 -64 -5 0 12 19 37 42 55
51 86 102 120 199 36 103 40 203 19 423 -17 174 -17 191 -1 302 9 64 22 126
29 138 10 18 13 7 17 -70 4 -79 10 -99 39 -155z m3245 -1 c-3 -18 -11 -76 -19
-128 l-14 -95 3 100 c3 87 16 155 30 155 2 0 2 -15 0 -32z m-135 -565 c-28
-76 -63 -160 -77 -188 -26 -52 -72 -118 -78 -112 -2 2 36 91 85 198 48 107 94
212 102 233 8 21 15 32 17 23 2 -8 -20 -78 -49 -154z"/>
<path d="M10507 9270 l-16 -41 -53 7 c-63 8 -60 -3 3 -15 24 -4 43 -12 43 -17
-1 -5 -5 -25 -8 -44 -6 -35 -6 -34 14 9 l20 44 46 -6 c51 -5 52 2 2 12 -32 7
-33 9 -30 49 1 23 1 42 -1 42 -2 0 -11 -18 -20 -40z"/>
<path d="M10050 9235 l-33 -34 -41 31 -41 32 33 -35 c17 -19 32 -38 32 -43 0
-4 -12 -24 -27 -44 l-27 -37 35 33 c39 36 51 39 69 16 8 -8 23 -20 34 -26 13
-6 6 5 -16 28 l-37 38 30 38 c38 47 33 49 -11 3z"/>
<path d="M11017 9025 c-4 -44 -11 -110 -15 -146 l-7 -67 -70 34 c-38 18 -94
45 -122 59 -29 13 -53 23 -53 21 0 -2 49 -37 110 -77 60 -41 109 -77 110 -80
0 -4 -50 -39 -110 -79 -61 -40 -109 -75 -106 -77 2 -2 58 23 124 56 l120 60 6
-77 c4 -42 10 -106 14 -142 8 -64 8 -62 16 65 4 72 9 136 11 143 3 8 46 -9
137 -54 73 -36 129 -62 123 -56 -5 5 -58 42 -117 81 -60 40 -108 76 -108 80 0
5 49 41 110 81 60 41 108 75 106 77 -2 3 -58 -23 -125 -57 -83 -41 -123 -56
-125 -48 -3 7 -8 74 -13 148 l-9 135 -7 -80z"/>
<path d="M10310 8969 c-19 -27 -38 -49 -41 -49 -4 0 -25 20 -48 45 -51 55 -52
50 -5 -15 l36 -51 -61 -26 c-34 -14 -60 -28 -58 -30 2 -2 30 6 62 17 32 11 60
18 62 16 2 -2 8 -32 12 -67 l8 -64 2 69 c1 65 2 68 24 63 12 -3 40 -8 62 -11
38 -6 37 -5 -14 14 -30 11 -56 22 -58 24 -2 2 10 27 28 55 41 67 34 73 -11 10z"/>
<path d="M8731 9005 c0 -5 8 -56 19 -113 11 -56 20 -108 20 -114 0 -8 -36 -9
-127 -4 -70 4 -125 4 -121 1 3 -3 59 -13 124 -22 66 -8 120 -16 122 -17 1 -2
-16 -54 -38 -116 -22 -62 -39 -115 -37 -117 2 -2 27 46 56 107 28 60 54 110
57 110 3 0 51 -34 107 -76 l102 -75 -94 91 c-52 50 -90 94 -85 99 5 4 53 38
107 76 53 37 97 70 97 72 0 2 -28 -12 -62 -32 -90 -52 -167 -90 -172 -84 -2 2
-20 54 -39 114 -19 61 -35 106 -36 100z"/>
<path d="M9510 8965 c0 -3 12 -33 26 -66 14 -34 24 -63 22 -65 -2 -1 -40 -10
-83 -18 l-80 -15 84 3 83 3 -5 -41 c-18 -127 -17 -133 2 -64 30 109 21 103
101 63 38 -19 70 -33 70 -31 0 2 -30 23 -66 46 l-65 43 63 65 c60 62 52 59
-39 -15 l-40 -32 -29 60 c-25 54 -44 81 -44 64z"/>
<path d="M2856 8595 c20 -48 19 -52 -23 -74 -45 -24 -37 -27 14 -6 19 8 36 15
38 15 1 0 10 -18 20 -40 23 -50 31 -46 10 5 -9 20 -15 38 -13 40 2 1 18 10 36
19 44 23 35 31 -11 11 l-37 -15 -20 40 c-25 49 -34 53 -14 5z"/>
<path d="M11706 8564 l13 -45 -42 -20 c-23 -10 -33 -17 -22 -14 11 2 32 7 46
10 23 6 27 2 43 -40 23 -58 32 -54 11 5 -8 24 -14 44 -13 45 2 1 17 10 33 19
l30 16 -36 -6 c-35 -5 -37 -4 -52 35 -22 55 -28 52 -11 -5z"/>
<path d="M7756 8442 c-15 -54 -31 -104 -35 -111 -7 -10 -29 -10 -116 3 -59 9
-110 15 -111 13 -2 -2 44 -18 102 -35 59 -17 109 -33 111 -36 3 -2 -3 -52 -12
-111 -9 -58 -15 -108 -13 -111 3 -2 17 40 32 94 15 54 31 103 34 110 6 8 31 8
102 -3 141 -22 147 -17 28 18 -58 18 -109 35 -113 39 -4 3 1 54 10 113 9 58
15 108 13 111 -3 2 -17 -40 -32 -94z"/>
<path d="M3368 8408 l-37 -30 -36 22 c-20 12 -38 20 -41 17 -3 -2 11 -15 30
-27 20 -12 36 -24 36 -27 0 -3 -14 -24 -32 -47 l-32 -41 41 38 41 39 43 -22
44 -21 -35 29 -34 30 27 36 c34 43 32 44 -15 4z"/>
<path d="M8230 8296 c-40 -118 -44 -125 -63 -114 -12 6 -61 35 -109 64 -49 30
-91 54 -95 54 -3 0 39 -34 93 -76 55 -41 100 -79 102 -83 1 -4 -38 -42 -88
-85 -49 -43 -90 -80 -90 -83 0 -2 46 27 102 66 56 39 105 67 109 63 3 -4 25
-53 49 -110 24 -56 45 -101 47 -99 2 2 -12 54 -31 116 -18 61 -31 113 -27 115
3 3 55 8 114 12 59 4 110 11 113 15 3 5 -49 9 -116 9 -120 0 -120 0 -115 23 3
12 16 69 29 127 14 57 23 106 22 108 -2 1 -23 -53 -46 -122z"/>
<path d="M11967 8365 c-12 -93 -17 -107 -36 -100 -71 29 -141 54 -141 50 0 -3
33 -22 74 -42 l75 -38 -56 -70 -56 -70 65 63 65 63 43 -65 c23 -36 44 -66 46
-66 2 0 -12 32 -31 70 l-35 70 25 10 c15 6 34 10 43 11 9 0 33 7 52 15 l35 14
-31 -4 c-17 -3 -53 -8 -80 -11 l-49 -7 3 54 c6 87 -2 123 -11 53z"/>
<path d="M12633 8335 l39 -37 -34 -36 c-31 -34 -17 -29 27 10 20 17 22 17 57
-7 48 -33 58 -32 19 1 -38 32 -38 40 -3 78 l27 30 -37 -27 c-20 -15 -40 -27
-45 -27 -5 0 -26 12 -48 26 l-40 26 38 -37z"/>
<path d="M6906 8305 l-18 -45 -51 -1 -52 -1 48 -10 c46 -10 48 -12 42 -37 -14
-61 -14 -64 6 -23 19 41 21 42 72 43 l52 1 -47 10 c-51 11 -53 15 -38 67 14
51 6 48 -14 -4z"/>
<path d="M5301 8192 c-13 -53 -28 -107 -32 -120 l-9 -22 -77 39 c-91 45 -162
76 -148 63 6 -5 52 -35 102 -66 51 -32 95 -62 98 -67 3 -5 -34 -50 -82 -101
-92 -96 -84 -94 41 10 l75 62 24 -42 c13 -24 43 -77 66 -118 48 -84 48 -84 -8
58 -23 56 -41 107 -41 111 0 5 44 17 98 26 187 33 170 39 -50 19 -36 -3 -58
-1 -58 5 0 6 7 60 16 122 8 61 13 113 11 115 -2 2 -14 -40 -26 -94z"/>
<path d="M6443 8258 l-32 -31 -38 28 -38 28 33 -35 33 -35 -31 -38 c-35 -44
-40 -62 -7 -25 47 52 52 53 86 24 18 -15 34 -24 37 -22 2 3 -11 17 -31 32
l-36 27 32 40 c37 47 35 50 -8 7z"/>
<path d="M4196 8170 c-46 -52 -83 -87 -90 -83 -6 4 -51 33 -101 66 l-90 59 45
-44 c25 -24 65 -60 88 -81 l43 -38 -61 -97 -61 -97 78 84 78 84 85 -55 c134
-85 133 -84 -34 63 l-29 25 60 90 c98 146 97 148 -11 24z"/>
<path d="M3100 8187 c0 -35 -3 -66 -6 -69 -3 -4 -35 2 -72 13 -36 10 -67 17
-69 15 -2 -2 22 -14 54 -26 32 -13 62 -27 67 -31 5 -5 -11 -39 -38 -81 -46
-71 -37 -66 35 21 l36 43 48 -61 c26 -33 50 -61 52 -61 5 0 -29 58 -59 102
-10 14 -18 28 -18 31 0 3 36 17 80 33 44 15 78 29 76 31 -3 4 -90 -16 -148
-33 -16 -5 -18 3 -18 65 0 41 -4 71 -10 71 -6 0 -10 -28 -10 -63z"/>
<path d="M7405 7992 c-4 -71 -11 -135 -15 -142 -5 -8 -43 6 -130 50 -67 34
-123 60 -125 58 -2 -2 47 -37 108 -78 61 -41 112 -79 114 -85 1 -5 -49 -44
-111 -85 -63 -41 -113 -76 -111 -78 1 -2 58 24 125 58 96 48 125 59 131 48 5
-7 9 -42 10 -78 1 -73 15 -206 18 -175 1 11 6 73 11 139 5 65 11 120 13 123 3
2 59 -23 126 -56 66 -34 124 -61 128 -61 3 0 -46 36 -110 80 -64 45 -117 83
-117 85 0 3 48 37 108 76 140 93 145 100 37 46 -140 -69 -165 -80 -171 -74 -3
3 -10 65 -15 138 -6 74 -12 135 -14 137 -2 2 -6 -55 -10 -126z"/>
<path d="M6729 8048 c5 -13 19 -47 30 -77 12 -29 20 -55 19 -56 -2 -2 -41 -10
-88 -19 l-85 -15 89 4 89 5 -6 -42 c-18 -132 -18 -135 3 -63 11 39 23 76 25
83 3 9 24 3 75 -23 93 -47 98 -44 17 10 -37 25 -67 49 -67 52 0 4 26 34 58 67
l57 59 -66 -51 c-37 -29 -70 -52 -73 -52 -3 0 -22 32 -41 70 -34 68 -54 94
-36 48z"/>
<path d="M11466 7950 c-21 -60 -40 -110 -42 -110 -2 0 -50 28 -106 61 -124 75
-118 71 -118 67 0 -2 45 -37 100 -78 54 -41 99 -78 100 -81 0 -4 -35 -37 -77
-75 -43 -37 -87 -77 -98 -88 l-20 -20 22 15 c13 8 63 42 112 76 l89 62 46
-105 c25 -58 46 -109 46 -114 0 -5 4 -11 9 -14 8 -5 -28 128 -59 217 -5 15 -6
27 -2 28 4 0 61 6 127 13 l120 12 -124 7 c-68 4 -125 8 -127 10 -1 1 9 49 22
106 14 57 23 108 22 112 -2 5 -20 -40 -42 -101z"/>
<path d="M3685 7905 c-38 -69 -71 -122 -75 -118 -4 5 -44 54 -89 111 -45 56
-84 102 -86 102 -3 0 27 -52 65 -115 39 -64 70 -120 70 -124 0 -5 -51 -16
-112 -26 -172 -26 -177 -34 -19 -27 l143 5 -7 -22 c-4 -13 -27 -73 -51 -134
-24 -61 -42 -112 -40 -114 2 -2 32 49 67 113 36 65 69 119 74 120 6 2 34 -27
62 -64 115 -147 127 -153 53 -29 -38 65 -70 122 -70 126 0 5 53 16 118 25 177
26 183 34 20 28 -82 -3 -148 -2 -148 1 0 3 22 63 50 133 27 70 48 129 46 131
-1 2 -33 -53 -71 -122z"/>
<path d="M6540 7951 l19 -49 -40 -17 c-49 -23 -44 -32 6 -11 21 9 38 16 40 16
1 0 10 -18 20 -40 23 -50 32 -46 11 5 -9 21 -16 38 -16 40 0 1 18 10 40 20 50
23 46 32 -5 10 -21 -8 -39 -14 -40 -13 -2 2 -12 22 -24 46 -29 57 -35 53 -11
-7z"/>
<path d="M4330 7959 c0 -3 25 -54 56 -113 44 -84 54 -110 43 -116 -7 -5 -58
-21 -113 -37 -122 -34 -108 -40 32 -15 l102 18 1 -125 1 -126 18 118 c9 65 20
120 22 123 3 2 56 -14 118 -36 62 -22 115 -39 116 -37 2 2 -46 27 -106 57 -61
30 -110 56 -110 59 0 3 34 50 76 105 l77 101 -93 -92 -94 -92 -73 106 c-40 59
-73 104 -73 102z"/>
<path d="M6009 7857 c-4 -42 -8 -79 -11 -82 -2 -3 -35 4 -73 15 -38 11 -70 18
-72 16 -2 -2 28 -16 66 -31 39 -15 71 -29 71 -31 0 -3 -17 -31 -38 -62 -55
-82 -59 -93 -15 -42 21 24 47 55 58 68 l20 23 49 -66 c28 -36 51 -65 53 -65 5
0 -13 34 -48 88 -16 25 -29 49 -29 53 0 4 30 17 66 29 81 27 78 37 -6 15 -34
-9 -64 -14 -66 -12 -3 2 -8 40 -12 83 l-8 79 -5 -78z"/>
<path d="M5312 7573 l-73 -83 -87 58 c-144 96 -147 95 -27 -9 47 -41 85 -78
85 -82 0 -4 -27 -48 -60 -97 -33 -49 -60 -92 -60 -95 0 -3 35 33 77 80 44 49
82 84 90 81 7 -3 46 -27 85 -54 122 -81 119 -73 -19 49 l-52 46 61 92 c34 50
59 93 57 94 -2 2 -37 -34 -77 -80z"/>
<path d="M2080 7649 c0 -4 7 -23 15 -42 21 -50 20 -54 -22 -76 -45 -24 -37
-27 12 -6 l35 14 20 -39 c26 -52 33 -51 15 1 -8 23 -15 43 -15 45 0 2 17 12
38 23 44 24 39 27 -12 6 l-36 -15 -24 47 c-14 27 -25 45 -26 42z"/>
<path d="M8095 7610 c3 -14 8 -35 11 -46 5 -18 -1 -24 -40 -39 -59 -23 -55
-29 6 -10 l46 13 21 -46 c12 -26 19 -39 17 -30 -21 76 -19 84 21 101 27 12 31
15 11 12 -14 -3 -33 -8 -42 -11 -12 -4 -21 6 -36 37 -11 24 -18 33 -15 19z"/>
<path d="M6994 7449 c-16 -55 -32 -105 -35 -111 -4 -6 -43 -4 -114 6 -59 9
-110 15 -111 13 -2 -2 44 -18 102 -35 59 -17 108 -33 110 -35 2 -1 -4 -47 -12
-102 -8 -54 -13 -103 -11 -109 2 -5 16 35 31 90 15 54 31 103 36 107 4 4 50 1
103 -7 141 -23 146 -19 23 18 -61 18 -112 38 -114 44 -2 6 4 57 13 113 9 56
14 103 12 105 -2 2 -16 -42 -33 -97z"/>
<path d="M2603 7419 l-31 -32 -37 23 c-20 12 -38 20 -41 17 -3 -2 11 -15 30
-27 37 -22 44 -34 26 -45 -5 -3 -19 -20 -31 -38 -22 -31 -21 -31 18 6 l41 39
43 -22 44 -21 -34 29 c-36 31 -36 37 2 80 31 34 6 26 -30 -9z"/>
<path d="M1137 7214 c-38 -68 -70 -124 -72 -124 -1 0 -38 44 -81 97 -128 158
-127 158 -30 -5 38 -62 65 -116 62 -119 -3 -4 -66 -16 -139 -29 l-132 -22 144
-1 c110 -1 142 -4 138 -13 -33 -83 -97 -251 -97 -256 0 -4 30 47 66 113 37 66
70 124 74 128 4 4 42 -36 85 -90 43 -54 85 -105 93 -113 13 -13 13 -12 2 10
-7 13 -42 71 -76 127 l-64 102 33 6 c17 3 82 14 142 24 l110 19 -144 1 c-110
1 -142 4 -138 14 40 99 97 251 95 253 -2 1 -34 -54 -71 -122z"/>
<path d="M6140 7305 c-11 -33 -14 -35 -58 -36 l-47 -1 43 -11 c32 -7 41 -14
38 -26 -3 -9 -8 -29 -11 -46 -4 -23 -1 -20 15 15 l20 45 53 -2 52 -2 -48 11
-48 10 6 39 c8 48 0 50 -15 4z"/>
<path d="M4153 7263 l-8 -48 -50 2 -50 1 48 -11 47 -10 1 -51 c1 -55 4 -53 14
7 l6 37 52 1 52 2 -53 10 -53 10 6 49 c9 62 0 63 -12 1z"/>
<path d="M2341 7204 c-1 -39 -4 -73 -7 -76 -3 -4 -18 -3 -32 2 -15 4 -52 15
-82 24 -68 20 -54 6 25 -24 33 -13 64 -26 69 -31 4 -4 -10 -33 -31 -66 -71
-105 -66 -102 42 25 l21 24 47 -61 c27 -34 51 -61 53 -61 6 0 4 3 -44 78 -18
30 -32 56 -29 58 2 2 40 18 83 34 93 34 88 37 -16 10 -41 -11 -76 -20 -77 -20
-2 0 -3 26 -4 58 -1 88 -17 112 -18 26z"/>
<path d="M1834 7154 c31 -58 56 -109 56 -113 0 -4 -54 -23 -120 -41 -66 -18
-118 -35 -116 -37 2 -2 54 5 116 17 63 11 117 20 122 20 4 0 9 -55 9 -122 l1
-123 14 90 c7 50 16 104 19 122 l6 32 107 -39 c59 -21 116 -41 127 -45 11 -3
-33 21 -97 55 -65 33 -118 63 -118 66 0 3 31 45 68 92 97 124 96 130 -5 25
-49 -51 -91 -93 -94 -93 -4 0 -37 45 -74 100 -38 55 -71 100 -73 100 -2 0 21
-47 52 -106z"/>
<path d="M5727 7167 c-25 -45 -56 -101 -69 -124 l-24 -43 -89 110 c-49 61 -90
110 -93 110 -2 0 5 -15 16 -32 67 -110 122 -204 122 -209 0 -4 -65 -17 -145
-29 -80 -12 -145 -24 -145 -27 0 -2 68 -1 152 3 128 6 150 5 146 -7 -46 -113
-98 -253 -96 -255 2 -1 33 51 68 116 36 66 68 120 72 120 4 0 43 -45 88 -100
45 -55 83 -100 86 -100 6 0 -3 14 -87 152 -26 43 -45 79 -41 82 4 2 59 12 122
21 169 26 172 33 13 27 -89 -3 -143 -1 -143 5 0 5 11 37 25 71 41 101 74 192
70 192 -2 0 -24 -37 -48 -83z"/>
<path d="M3459 7167 c-3 -42 -9 -80 -12 -84 -4 -3 -39 3 -79 15 -40 11 -74 19
-76 18 -2 -2 29 -16 68 -32 39 -15 73 -30 75 -34 2 -4 -16 -38 -41 -76 l-46
-69 59 64 59 64 48 -61 c26 -34 49 -62 52 -62 6 0 4 3 -43 78 -19 29 -31 56
-28 61 3 5 35 19 71 31 83 28 77 37 -10 14 -36 -10 -69 -15 -73 -11 -4 4 -10
42 -13 85 l-5 77 -6 -78z"/>
<path d="M6651 7105 c-6 -104 -19 -247 -24 -251 -3 -3 -60 22 -127 56 -67 34
-124 60 -125 58 -2 -2 46 -38 108 -79 62 -42 112 -80 111 -85 0 -5 -52 -44
-114 -86 -62 -43 -110 -78 -107 -78 4 0 62 27 128 61 67 33 123 58 126 55 3
-2 9 -60 14 -128 13 -170 14 -170 26 -15 6 76 13 140 16 143 3 3 59 -22 126
-55 66 -34 124 -61 128 -61 4 0 -44 35 -107 78 -63 42 -115 81 -114 87 1 5 52
44 114 87 62 43 110 78 106 78 -3 0 -61 -27 -127 -61 -67 -33 -124 -58 -127
-55 -3 4 -9 61 -14 129 -9 130 -15 171 -17 122z"/>
<path d="M7335 6620 c3 -14 8 -34 11 -46 4 -17 -2 -24 -33 -37 -27 -12 -31
-15 -11 -12 14 3 33 7 41 10 10 4 19 -8 32 -40 21 -57 31 -54 10 4 l-15 42 53
24 c61 28 59 31 -7 9 -26 -9 -48 -15 -50 -13 -1 2 -10 22 -20 44 -9 22 -14 29
-11 15z"/>
<path d="M935 2305 c13 -56 54 -130 94 -169 22 -22 42 -38 45 -35 3 4 -124
212 -139 227 -4 4 -4 -7 0 -23z"/>
</g>
</svg>
